<svg xmlns="http://www.w3.org/2000/svg" width="15" height="16" viewBox="0 0 15 16">
  <path id="Attendance_Submission_ic" data-name="Attendance Submission_ic" d="M7.895,10.057V16H0a6.307,6.307,0,0,1,.632-2.667A5.345,5.345,0,0,1,2.447,11.2a6.622,6.622,0,0,1,2.6-1.143,5.979,5.979,0,0,1,2.843,0M6.316,9.143A4.67,4.67,0,0,1,1.579,4.571,4.67,4.67,0,0,1,6.316,0a4.67,4.67,0,0,1,4.737,4.571A4.67,4.67,0,0,1,6.316,9.143m4.737,3.048V9.9h1.579V12.19H15v1.524H12.632V16H11.053V13.714H8.684V12.19Z" fill="#fff"/>
</svg>
