<svg xmlns="http://www.w3.org/2000/svg" width="16" height="16.035" viewBox="0 0 16 16.035">
  <path id="attechment_ic" d="M2.106,7.98a3.831,3.831,0,0,0,.744,2.189,2.281,2.281,0,0,0-.678,1.2,2.12,2.12,0,0,0,3.478,2c.063-.054.122-.112.181-.171q3.676-3.677,7.353-7.355A2.122,2.122,0,1,0,10.249,2.78C9.123,3.882,8.018,5.006,6.9,6.121q-.694.695-1.389,1.39a.539.539,0,1,0,.752.752Q8,6.532,9.732,4.8a1.983,1.983,0,0,0,.176-.242,2.066,2.066,0,0,1,.655,1.587,2.029,2.029,0,0,1-.607,1.429C9.2,8.338,8.444,9.109,7.667,9.856A2.648,2.648,0,0,1,3.915,6.119C5.546,4.454,7.178,2.788,8.863,1.18A3.986,3.986,0,0,1,13.27.314a4.02,4.02,0,0,1,2.7,3.535,4.129,4.129,0,0,1-1.3,3.509q-3.2,3.192-6.387,6.387c-.346.346-.684.7-1.039,1.036A4.09,4.09,0,0,1,2.934,15.8,4.047,4.047,0,0,1,.067,12.449,3.983,3.983,0,0,1,.876,9.216c.349-.449.772-.839,1.162-1.256l.068.02" transform="translate(0 0.001)" fill="#08263a"/>
</svg>
