<svg xmlns="http://www.w3.org/2000/svg" width="18" height="16" viewBox="0 0 18 16">
  <path id="new_mail_ic" d="M16.364,8.279a5.2,5.2,0,0,0-2.7-.159,4.6,4.6,0,0,0-2.373,1.274A4.411,4.411,0,0,0,9.982,11.7a4.758,4.758,0,0,0,.164,2.627H.818a.753.753,0,0,1-.573-.239A.714.714,0,0,1,0,13.532V.8A.714.714,0,0,1,.245.239.753.753,0,0,1,.818,0H15.545a.753.753,0,0,1,.573.239A.714.714,0,0,1,16.364.8ZM8.264,7l-5.236-4.3L1.964,3.9l6.3,5.254L14.482,3.9,13.418,2.706Zm7.282,5.015H18v1.592H15.545V16H13.909V13.612H11.455V12.02h2.455V9.632h1.636Z" fill="#fff"/>
</svg>
