<svg xmlns="http://www.w3.org/2000/svg" width="20" height="20" viewBox="0 0 20 20">
  <g id="Change_Password_ic" data-name="Change Password_ic" transform="translate(0 0)">
    <path id="Path_12239" data-name="Path 12239" d="M11.672,8.351l-3.107,3.1c-.307.307-.618.611-.919.924a.4.4,0,0,0-.125.237c-.008,1.059-.006,2.118-.006,3.2.085.006.159.016.233.016.965,0,1.93.007,2.895-.007a.6.6,0,0,0,.377-.16q1.891-1.869,3.767-3.753c.064-.064.133-.124.241-.223v.3q0,3.114,0,6.226A1.663,1.663,0,0,1,13.236,20H1.789A1.673,1.673,0,0,1,0,18.226Q0,14.163,0,10.1A1.674,1.674,0,0,1,1.753,8.33c3.268-.012,6.536,0,9.8,0a.739.739,0,0,1,.115.024" fill="#7f1417"/>
    <path id="Path_12240" data-name="Path 12240" d="M18.339,3.372,20,5.025c-.045.047-.1.11-.162.17q-4.823,4.818-9.649,9.629a.653.653,0,0,1-.4.165c-.467.02-.936.008-1.437.008,0-.542,0-1.068,0-1.594a.3.3,0,0,1,.1-.17Q13.378,8.313,18.3,3.4a.2.2,0,0,1,.035-.024" fill="#7f1417"/>
    <path id="Path_12241" data-name="Path 12241" d="M4.176,7.479H2.544c-.01-.014-.03-.028-.029-.041a28.963,28.963,0,0,1,.1-3.325A4.9,4.9,0,0,1,7.137.013a5,5,0,0,1,5.385,4.969c.007.824,0,1.648,0,2.491H10.854c0-.1,0-.2,0-.3a27.268,27.268,0,0,0-.066-2.73,3.315,3.315,0,0,0-6.549.043c-.1.867-.047,1.751-.063,2.626,0,.12,0,.239,0,.37" fill="#7f1417"/>
  </g>
</svg>
