<svg xmlns="http://www.w3.org/2000/svg" width="18" height="16" viewBox="0 0 18 16">
  <path id="cam_ic" d="M6.3,0h5.4l1.8,1.778h3.6a.822.822,0,0,1,.63.267.8.8,0,0,1,.27.622V15.111a.8.8,0,0,1-.27.622A.822.822,0,0,1,17.1,16H.9a.822.822,0,0,1-.63-.267A.8.8,0,0,1,0,15.111V2.667a.8.8,0,0,1,.27-.622A.822.822,0,0,1,.9,1.778H4.5ZM9,14.222a5.068,5.068,0,0,0,3.78-1.6A5.291,5.291,0,0,0,14.4,8.889a4.947,4.947,0,0,0-1.62-3.733A5.422,5.422,0,0,0,9,3.556a5.068,5.068,0,0,0-3.78,1.6A5.291,5.291,0,0,0,3.6,8.889a4.947,4.947,0,0,0,1.62,3.733A5.068,5.068,0,0,0,9,14.222m0-1.778a3.287,3.287,0,0,1-2.52-1.067A3.9,3.9,0,0,1,5.4,8.889,3.344,3.344,0,0,1,6.48,6.4,4,4,0,0,1,9,5.333,3.426,3.426,0,0,1,11.52,6.4,3.9,3.9,0,0,1,12.6,8.889a3.344,3.344,0,0,1-1.08,2.489A3.807,3.807,0,0,1,9,12.444" fill="#fff"/>
</svg>
