<svg id="Contact_Us_ic" data-name="Contact Us_ic" xmlns="http://www.w3.org/2000/svg" xmlns:xlink="http://www.w3.org/1999/xlink" width="20" height="18" viewBox="0 0 20 18">
  <defs>
    <clipPath id="clip-path">
      <rect id="Rectangle_2279" data-name="Rectangle 2279" width="20" height="18" fill="#7f1417"/>
    </clipPath>
  </defs>
  <g id="Group_2676" data-name="Group 2676" clip-path="url(#clip-path)">
    <path id="Path_12035" data-name="Path 12035" d="M0,3.627c.066-.456.125-.914.2-1.368a.383.383,0,0,1,.154-.222Q1.7,1.121,3.055.219A1.106,1.106,0,0,1,4.689.572q.775,1.293,1.533,2.6a1.055,1.055,0,0,1-.4,1.5c-.494.3-.992.6-1.5.887a.268.268,0,0,0-.153.369,14.072,14.072,0,0,0,1.3,3.1,16.305,16.305,0,0,0,2.544,3.547c.391.4.393.4.88.139.414-.222.828-.446,1.244-.666a1.118,1.118,0,0,1,1.592.433q.75,1.258,1.493,2.523a1.066,1.066,0,0,1-.5,1.6q-1.466.69-2.941,1.361a.547.547,0,0,1-.351,0,7.059,7.059,0,0,1-2.326-1.293,17.879,17.879,0,0,1-3.646-4.067A21.71,21.71,0,0,1,.471,6.385,12.694,12.694,0,0,1,0,3.627" fill="#7f1417"/>
    <path id="Path_12036" data-name="Path 12036" d="M19.975,3.555c.01.117.024.2.024.288q0,4.418,0,8.834a.822.822,0,0,1-.918.9c-1.79,0-3.58,0-5.371,0a.262.262,0,0,1-.261-.15q-.414-.72-.843-1.431a2.134,2.134,0,0,0-2.952-.8L8.6,11.76A17.017,17.017,0,0,1,5.275,6.155l1.44-.876c.944.631,1.9,1.271,2.861,1.913q1.052.7,2.1,1.407a.556.556,0,0,0,.762,0l7.3-4.888c.067-.045.135-.089.232-.152" fill="#7f1417"/>
    <path id="Path_12037" data-name="Path 12037" d="M7.261,2.95H19.069c-.058.048-.093.084-.134.111Q15.57,5.314,12.206,7.569a.231.231,0,0,1-.308,0q-2.233-1.5-4.476-3c-.115-.077-.17-.137-.118-.29A1.863,1.863,0,0,0,7.3,3.134c-.014-.046-.03-.091-.042-.136a.144.144,0,0,1,0-.048" fill="#7f1417"/>
  </g>
</svg>
