<svg xmlns="http://www.w3.org/2000/svg" width="18" height="18" viewBox="0 0 18 18">
  <path id="call_ic" d="M18,13.425v3.481a1.074,1.074,0,0,1-.3.7.9.9,0,0,1-.7.3c-.4,0-.8.1-1.094.1A15.958,15.958,0,0,1,0,2.088,4.88,4.88,0,0,1,.1.994,1.074,1.074,0,0,1,.4.3a.9.9,0,0,1,.7-.3H4.575c.1,0,.2.1.3.1.1.1.2.2.2.3a1.261,1.261,0,0,0,.1.6A14.113,14.113,0,0,0,6.365,4.972c.1.2,0,.4-.2.6L4.077,7.061a12.848,12.848,0,0,0,6.762,6.762l1.492-2.188c.1-.1.2-.2.3-.2h.3a14.113,14.113,0,0,0,3.978,1.193,1.75,1.75,0,0,1,.6.1c.1,0,.2.1.3.2.2.3.2.4.2.5" fill="#7f1417"/>
</svg>
