<svg xmlns="http://www.w3.org/2000/svg" width="14.606" height="16" viewBox="0 0 14.606 16">
  <path id="Excel_ic" d="M.587,1.321,9.835,0h.147c.073,0,.073.073.147.073,0,.073.073.073.073.147s.073.073.073.147V15.633c0,.073,0,.073-.073.147,0,.073-.073.073-.073.147-.073,0-.073.073-.147.073H9.835L.587,14.679a.837.837,0,0,1-.44-.22A1.061,1.061,0,0,1,0,13.945V1.982a1.361,1.361,0,0,1,.147-.514.62.62,0,0,1,.44-.147m10.349.073h2.936a.666.666,0,0,1,.514.22.666.666,0,0,1,.22.514V13.872a.753.753,0,0,1-.734.734H10.936ZM5.945,8,8,5.064H6.239L5.064,6.752,3.89,5.064H2.128L4.183,8,2.128,10.936H3.89L5.064,9.248l1.174,1.688H8Z" fill="#2c2c2c"/>
</svg>
