<svg xmlns="http://www.w3.org/2000/svg" width="15" height="14" viewBox="0 0 15 14">
  <path id="Files_ic" d="M8.617,1.547h4.989a.679.679,0,0,1,.529.232.71.71,0,0,1,.227.541v.773H.756V.773A.71.71,0,0,1,.983.232.679.679,0,0,1,1.512,0H7.105ZM.831,4.641H14.286a.446.446,0,0,1,.3.077c.076.077.151.077.227.155a.4.4,0,0,1,.151.309c0,.077.076.232,0,.309l-.6,7.735a.846.846,0,0,1-.227.541.679.679,0,0,1-.529.232H1.361a.807.807,0,0,1-.529-.232A.71.71,0,0,1,.6,13.227L0,5.492V5.182C.076,5.1.076,4.95.151,4.873S.3,4.718.378,4.718a1.1,1.1,0,0,1,.454-.077" fill="#7f1417"/>
</svg>
