<svg xmlns="http://www.w3.org/2000/svg" width="14" height="14" viewBox="0 0 14 14">
  <path id="check_ic" d="M11.127,12.184a.974.974,0,0,0-1.151.746.966.966,0,0,1-1.52.545.972.972,0,0,0-1.389.18.941.941,0,0,1-1.552-.141c-.452-.59-.675-.662-1.4-.454A.894.894,0,0,1,2.862,12.3a1.141,1.141,0,0,0-1.09-1.091c-.752-.106-1.023-.644-.763-1.365a.923.923,0,0,0-.4-1.232C-.13,8.1-.19,7.631.394,6.957a.94.94,0,0,0,.113-1.3.95.95,0,0,1,.516-1.542.965.965,0,0,0,.695-1.144c-.046-.82.292-1.172,1.106-1.156.7.014.912-.119,1.184-.756A.964.964,0,0,1,5.533.531.959.959,0,0,0,6.892.365a.946.946,0,0,1,1.6.164.994.994,0,0,0,1.335.44.9.9,0,0,1,1.3.779A1.133,1.133,0,0,0,12.2,2.806.915.915,0,0,1,13.015,4.1.988.988,0,0,0,13.5,5.444a.912.912,0,0,1,.186,1.505c-.495.568-.523.82-.164,1.448a.937.937,0,0,1-.5,1.469,1,1,0,0,0-.749,1.189c.018.818-.311,1.144-1.142,1.129M6.2,9.619,10.21,5.528,8.966,4.3,6.12,7.177,4.974,5.957,3.737,7.245,6.2,9.619" transform="translate(0 0)" fill="#51bb76"/>
</svg>
