<svg xmlns="http://www.w3.org/2000/svg" width="26" height="24" viewBox="0 0 26 24">
  <path id="home_ic" d="M22.455,22.782a1.122,1.122,0,0,1-.355.853,1.058,1.058,0,0,1-.827.365H4.727a1.058,1.058,0,0,1-.827-.365,1.122,1.122,0,0,1-.355-.853V11.817H0L12.173.365a1.119,1.119,0,0,1,1.655,0L26,11.817H22.455ZM7.682,14.254a5.964,5.964,0,0,0,1.536,3.9A5.383,5.383,0,0,0,13,19.736a5.6,5.6,0,0,0,3.782-1.584,5.228,5.228,0,0,0,1.536-3.9H15.955a3.564,3.564,0,0,1-.827,2.193A2.639,2.639,0,0,1,13,17.3a3.342,3.342,0,0,1-2.127-.853,2.809,2.809,0,0,1-.827-2.193Z" transform="translate(0 0)" fill="#7f1417"/>
</svg>
