<svg xmlns="http://www.w3.org/2000/svg" width="18" height="20" viewBox="0 0 18 20">
  <path id="Help_Resources_ic" d="M7.826,12.15v7.477H0A7.394,7.394,0,0,1,2.25,14.3a8.121,8.121,0,0,1,5.576-2.15m0-.935a5.76,5.76,0,0,1-5.87-5.607A5.76,5.76,0,0,1,7.826,0,5.76,5.76,0,0,1,13.7,5.607a5.76,5.76,0,0,1-5.87,5.607m2.543,5.421a3.846,3.846,0,0,1,0-1.5l-.978-.561.978-1.589.978.561a2.824,2.824,0,0,1,1.37-.748V11.776h1.957V12.8a3.887,3.887,0,0,1,1.37.748l.978-.561L18,14.579l-.978.561a3.846,3.846,0,0,1,0,1.5L18,17.2l-.978,1.589-.978-.561a2.824,2.824,0,0,1-1.37.748V20H12.717V18.972a3.887,3.887,0,0,1-1.37-.748l-.978.561L9.391,17.2ZM13.7,14.953a.908.908,0,0,0-.685.28.876.876,0,0,0,0,1.308.976.976,0,0,0,1.37,0,.876.876,0,0,0,0-1.308.908.908,0,0,0-.685-.28" fill="#fff"/>
</svg>
