<svg id="home_ic" xmlns="http://www.w3.org/2000/svg" width="26" height="24" viewBox="0 0 26 24">
  <path id="home_ic-2" data-name="home_ic" d="M5.909,21.563H20.091V9.624L13,2.924l-7.091,6.7ZM21.273,24H4.727a1.058,1.058,0,0,1-.827-.365,1.122,1.122,0,0,1-.355-.853V11.817H0L12.173.365a1.119,1.119,0,0,1,1.655,0L26,11.817H22.455V22.782a1.122,1.122,0,0,1-.355.853,1.058,1.058,0,0,1-.827.365M7.682,14.254h2.364a3.564,3.564,0,0,0,.827,2.193A2.639,2.639,0,0,0,13,17.3a3.342,3.342,0,0,0,2.127-.853,2.809,2.809,0,0,0,.827-2.193h2.364a5.964,5.964,0,0,1-1.536,3.9A4.917,4.917,0,0,1,13,19.736a5.6,5.6,0,0,1-3.782-1.584,5.228,5.228,0,0,1-1.536-3.9" fill="#526775"/>
</svg>
