<svg id="License_terms_ic" xmlns="http://www.w3.org/2000/svg" xmlns:xlink="http://www.w3.org/1999/xlink" width="18" height="18" viewBox="0 0 18 18">
  <defs>
    <clipPath id="clip-path">
      <rect id="Rectangle_2278" data-name="Rectangle 2278" width="18" height="18" fill="#7f1417"/>
    </clipPath>
  </defs>
  <g id="Group_2675" data-name="Group 2675" clip-path="url(#clip-path)">
    <path id="Path_12029" data-name="Path 12029" d="M2.976,17.983A2.45,2.45,0,0,0,3.561,16.2c-.011-3.988,0-7.976,0-11.963V3.892H6.723a1.948,1.948,0,0,0,0,2.09H5.311c-.115,0-.228,0-.342,0a.285.285,0,0,0-.3.31A.3.3,0,0,0,5,6.608c.37.006.739,0,1.108,0,.247,0,.494-.015.738.01a.286.286,0,0,1,.2.191,2.118,2.118,0,0,1-.059.6c-.014.056-.157.11-.242.112-.559.01-1.118.007-1.677.005-.209,0-.4.04-.4.3,0,.274.185.32.409.318.614,0,1.229,0,1.827,0l.335.906c-.069.005-.147.017-.226.017q-.966,0-1.933,0c-.221,0-.414.05-.41.322s.2.309.421.308c1.012,0,2.026,0,3.095,0-.139.3-.25.576-.393.832-.034.062-.175.087-.267.088-.824.007-1.649,0-2.472.013a.486.486,0,0,0-.36.2c-.121.213.064.414.368.416.711,0,1.422,0,2.132,0h.285c-.138.3-.248.574-.387.829-.031.057-.161.081-.246.082-.587.007-1.175-.007-1.761.012a.534.534,0,0,0-.381.176c-.144.2.036.436.329.439.531.005,1.061.007,1.591,0,.164,0,.243.03.294.215a.778.778,0,0,0,.931.561c.271-.047.545-.078.811-.149.246-.065.374.015.431.286-.1.005-.2.014-.3.014q-1.818,0-3.637,0c-.067,0-.153-.025-.2.007-.109.084-.256.18-.283.3-.043.184.1.3.283.321a2.713,2.713,0,0,0,.312,0c1.308,0,2.615,0,3.922,0a.526.526,0,0,1,.443.182.773.773,0,0,0,1.181-.019.523.523,0,0,1,.327-.153c.531-.015,1.061-.009,1.592-.006.223,0,.417-.056.413-.321s-.2-.312-.424-.309c-.492.005-.984,0-1.521,0,.135-.3.247-.572.385-.832.031-.058.158-.086.241-.089.322-.01.644,0,.966,0,.213,0,.357-.092.353-.32,0-.212-.148-.3-.344-.3-.282,0-.564,0-.892,0,.1-.234.186-.426.276-.614a.213.213,0,0,1,.1-.09.962.962,0,0,1,1.078.422c.272.638.545,1.275.814,1.915a.681.681,0,0,1,.044.251c0,.823.009,1.646,0,2.468A1.461,1.461,0,0,1,12.78,18q-4.817.01-9.634,0c-.036,0-.071-.007-.169-.016m8.082-2.106c.559,0,1.118,0,1.676,0,.222,0,.417-.046.413-.317,0-.251-.185-.3-.4-.3q-1.705,0-3.409,0c-.221,0-.417.04-.411.315s.21.3.425.3c.568,0,1.137,0,1.7,0" transform="translate(-0.062)" fill="#7f1417"/>
    <path id="Path_12030" data-name="Path 12030" d="M7.652,7.839A1,1,0,0,1,7.665,7.7a2.831,2.831,0,0,0-.378-2.16,1.149,1.149,0,0,1,.262-1.541,2.438,2.438,0,0,1,.187-.178A2.15,2.15,0,0,0,8.58,2.329a2.526,2.526,0,0,1,.1-.423,1.1,1.1,0,0,1,.874-.813,2.041,2.041,0,0,1,.48-.043,2.152,2.152,0,0,0,1.635-.6,2.419,2.419,0,0,1,.3-.225,1.108,1.108,0,0,1,1.329,0,1.094,1.094,0,0,1,.137.1,2.616,2.616,0,0,0,1.992.743,1.136,1.136,0,0,1,1.2,1.006c.029.122.063.244.08.368a1.954,1.954,0,0,0,.732,1.3c.111.089.21.195.312.3a1.2,1.2,0,0,1,.258,1.454,2.037,2.037,0,0,1-.129.258,2.425,2.425,0,0,0-.3,1.833,1.189,1.189,0,0,1-.863,1.559,2.769,2.769,0,0,0-1.5,1.291,1.126,1.126,0,0,1-1.6.594,2.668,2.668,0,0,0-1.959,0,1.122,1.122,0,0,1-1.6-.589A2.8,2.8,0,0,0,8.473,9.106a1.135,1.135,0,0,1-.82-1.267m8.492-2.258a3.515,3.515,0,1,0-7.028.011,3.515,3.515,0,1,0,7.028-.011" transform="translate(-0.148)" fill="#7f1417"/>
    <path id="Path_12031" data-name="Path 12031" d="M.02,14.744H2.832a16.845,16.845,0,0,1-.021,2.17A1.362,1.362,0,0,1,1.383,18,1.392,1.392,0,0,1,.035,16.841c-.07-.685-.016-1.383-.016-2.1" transform="translate(0)" fill="#7f1417"/>
    <path id="Path_12032" data-name="Path 12032" d="M8.855,9.92a4,4,0,0,1,.351.348,3.622,3.622,0,0,1,.3.458,1.821,1.821,0,0,0,2,1.008c-.039.1-.063.182-.1.256-.286.631-.57,1.263-.866,1.889a1.43,1.43,0,0,1-.224.275,1.518,1.518,0,0,1-.272-.26c-.2-.319-.389-.642-.554-.978a.32.32,0,0,0-.426-.2c-.388.085-.78.15-1.172.216-.264.044-.371-.084-.262-.327.395-.877.8-1.749,1.227-2.69" transform="translate(-0.158)" fill="#7f1417"/>
    <path id="Path_12033" data-name="Path 12033" d="M14.224,11.772a1.991,1.991,0,0,0,1.791-1.2c.3-.522.372-.562.82-.728a1.072,1.072,0,0,1,.084.138c.289.683.581,1.365.86,2.052a.407.407,0,0,1,0,.313c-.03.052-.185.054-.277.037-.41-.075-.816-.175-1.227-.24a.347.347,0,0,0-.285.127c-.235.351-.441.722-.669,1.078-.051.08-.152.176-.227.174s-.168-.11-.206-.194c-.222-.5-.43-1.009-.663-1.561" transform="translate(-0.297)" fill="#7f1417"/>
    <path id="Path_12034" data-name="Path 12034" d="M14.752,5a8.519,8.519,0,0,1-.064,1.1,2.32,2.32,0,0,1-1.8,1.908.756.756,0,0,1-.335.005,2.356,2.356,0,0,1-1.865-2.23c-.018-.531,0-1.064-.011-1.6a.275.275,0,0,1,.2-.3c.559-.236,1.111-.49,1.672-.723a.448.448,0,0,1,.316,0c.561.232,1.113.485,1.673.721a.268.268,0,0,1,.2.3c-.015.27,0,.541,0,.812h.018m-2.417.757a4.814,4.814,0,0,0-.314-.4.283.283,0,0,0-.45-.008.3.3,0,0,0,.019.441c.169.183.347.358.521.535a.328.328,0,0,0,.522,0q.554-.52,1.114-1.034c.157-.143.268-.3.106-.5s-.349-.122-.516.035c-.312.294-.63.582-1,.925" transform="translate(-0.223)" fill="#7f1417"/>
  </g>
</svg>
