<svg id="Learning_ic" xmlns="http://www.w3.org/2000/svg" width="22" height="24" viewBox="0 0 22 24">
  <path id="Learning_ic-2" data-name="Learning_ic" d="M0,19.8V3.6A3.241,3.241,0,0,1,1.1,1.08,3.549,3.549,0,0,1,3.667,0H20.778a1.119,1.119,0,0,1,.856.36A1.08,1.08,0,0,1,22,1.2V22.8a1.08,1.08,0,0,1-.367.84,1.119,1.119,0,0,1-.856.36H4.278a4.872,4.872,0,0,1-3.056-1.2A4.688,4.688,0,0,1,0,19.8m19.556,1.8V18H4.278a2.592,2.592,0,0,0-1.344.48,1.785,1.785,0,0,0-.489,1.32,2.488,2.488,0,0,0,.489,1.32,1.858,1.858,0,0,0,1.344.48Zm-11-19.2H3.667a1.119,1.119,0,0,0-.856.36,1.08,1.08,0,0,0-.367.84V15.96a4.983,4.983,0,0,1,1.833-.36H19.556V2.4H17.111V12L12.833,9.6,8.556,12Z" fill="#526775"/>
</svg>
