<svg xmlns="http://www.w3.org/2000/svg" width="22" height="24" viewBox="0 0 22 24">
  <path id="Learning_hover_ic" d="M20.778,24H4.278a4.872,4.872,0,0,1-3.056-1.2A3.943,3.943,0,0,1,0,19.8V3.6A3.241,3.241,0,0,1,1.1,1.08,3.549,3.549,0,0,1,3.667,0H20.778a1.119,1.119,0,0,1,.856.36A1.08,1.08,0,0,1,22,1.2V22.8a1.08,1.08,0,0,1-.367.84,1.119,1.119,0,0,1-.856.36m-1.222-2.4V18H4.278a2.592,2.592,0,0,0-1.344.48,1.785,1.785,0,0,0-.489,1.32,2.488,2.488,0,0,0,.489,1.32,1.858,1.858,0,0,0,1.344.48Zm-11-19.2V12l4.278-2.4L17.111,12V2.4Z" fill="#7f1417"/>
</svg>
