<svg xmlns="http://www.w3.org/2000/svg" width="21.009" height="20" viewBox="0 0 21.009 20">
  <g id="logout_ic" transform="translate(0 0)">
    <path id="Path_11988" data-name="Path 11988" d="M10.586,16.537V3.51a.938.938,0,0,0-.812-1.028l-2.168-.62a1.043,1.043,0,0,1-.111-.045h6.4V2.03c0,1.274,0,2.548,0,3.822a.947.947,0,0,0,1.894,0q0-2.463,0-4.925A.916.916,0,0,0,14.813,0Q7.921,0,1.031,0A.941.941,0,0,0,0,.983Q0,9.2,0,17.417a.9.9,0,0,0,.779.918q4.3.824,8.6,1.639a.936.936,0,0,0,1.21-.956c0-.216,0-.432,0-.663H10.8q2.007,0,4.012,0a.916.916,0,0,0,.98-.88c.005-1.672,0-3.345,0-5.017a.824.824,0,0,0-.232-.567.981.981,0,0,0-1.039-.255.9.9,0,0,0-.624.864c0,1.284,0,2.568,0,3.852v.186Zm7.131-6.457.017.035c-.312.3-.625.589-.934.886a.873.873,0,0,0-.02,1.294.979.979,0,0,0,1.359-.013q1.29-1.221,2.57-2.449a.87.87,0,0,0,0-1.317c-.232-.225-.468-.447-.7-.67q-.929-.884-1.856-1.767a.985.985,0,0,0-1.372-.019A.875.875,0,0,0,16.8,7.354q.161.154.322.307l.636.6c-.094,0-.147.008-.2.008q-2.192,0-4.386,0a.97.97,0,0,0-.843.389.826.826,0,0,0-.062.94.938.938,0,0,0,.884.482h4.561" transform="translate(0)" fill="#7f1417"/>
    <path id="Path_11989" data-name="Path 11989" d="M10.586,16.537H13.9v-.186c0-1.284,0-2.568,0-3.852a.9.9,0,0,1,.623-.863.98.98,0,0,1,1.041.254.83.83,0,0,1,.231.567c0,1.672,0,3.345,0,5.017a.916.916,0,0,1-.98.88c-1.338,0-2.674,0-4.012,0h-.213c0,.232,0,.447,0,.663a.935.935,0,0,1-1.21.956q-4.3-.815-8.6-1.639A.9.9,0,0,1,0,17.417Q0,9.2,0,.983A.941.941,0,0,1,1.031,0q6.89,0,13.782,0a.916.916,0,0,1,.98.926q0,2.462,0,4.924a.947.947,0,0,1-1.894,0c0-1.274,0-2.548,0-3.821V1.818h-6.4c.055.022.082.036.111.044l2.168.62a.937.937,0,0,1,.812,1.028V16.537" transform="translate(0)" fill="#7f1417"/>
    <path id="Path_11990" data-name="Path 11990" d="M17.139,10.08H12.578a.938.938,0,0,1-.884-.482.826.826,0,0,1,.062-.94.97.97,0,0,1,.843-.389q2.192,0,4.386,0c.051,0,.1,0,.2-.008l-.636-.6q-.162-.153-.322-.307A.875.875,0,0,1,16.2,6.06a.985.985,0,0,1,1.372.019q.929.88,1.856,1.767c.234.223.47.445.7.67a.87.87,0,0,1,0,1.317q-1.28,1.229-2.57,2.449A.979.979,0,0,1,16.2,12.3.873.873,0,0,1,16.221,11c.31-.3.623-.591.934-.886l-.017-.035" transform="translate(0.578)" fill="#7f1417"/>
  </g>
</svg>
