<svg xmlns="http://www.w3.org/2000/svg" width="42" height="42" viewBox="0 0 42 42">
  <g id="linkedin_" data-name="linkedin " transform="translate(-24 -280)">
    <rect id="Rectangle_2350" data-name="Rectangle 2350" width="42" height="42" rx="10" transform="translate(24 280)" fill="#0073b1"/>
    <path id="linkedin_ic" d="M4,2a1.974,1.974,0,0,1-.6,1.4A1.974,1.974,0,0,1,2,4,1.974,1.974,0,0,1,.6,3.4,1.974,1.974,0,0,1,0,2,1.974,1.974,0,0,1,.6.6,1.974,1.974,0,0,1,2,0,1.974,1.974,0,0,1,3.4.6,1.974,1.974,0,0,1,4,2m.1,3.5H.1V18h4Zm6.3,0h-4V18h3.9V11.4c0-3.7,4.8-4,4.8,0V18H19V10.1c0-6.2-7.1-5.9-8.7-2.9Z" transform="translate(36 292)" fill="#fff"/>
  </g>
</svg>
