<svg xmlns="http://www.w3.org/2000/svg" width="27" height="25" viewBox="0 0 27 25">
  <g id="message_ic" transform="translate(0.5 0.5)">
    <path id="message_ic-2" data-name="message_ic" d="M0,8A8.081,8.081,0,0,1,.65,4.933,6.632,6.632,0,0,1,2.34,2.4,7.617,7.617,0,0,1,4.81.667,7.549,7.549,0,0,1,7.8,0H18.2A7.925,7.925,0,0,1,26,8V24H7.8A7.925,7.925,0,0,1,0,16ZM23.4,21.333V8a4.9,4.9,0,0,0-1.56-3.733,5.671,5.671,0,0,0-3.64-1.6H7.8a4.647,4.647,0,0,0-1.95.4,4.946,4.946,0,0,0-1.69,1.2A5.079,5.079,0,0,0,2.99,6,5.47,5.47,0,0,0,2.6,8v8a4.9,4.9,0,0,0,1.56,3.733,5.671,5.671,0,0,0,3.64,1.6ZM16.9,10.667h2.6v2.667H16.9Zm-5.2,0h2.6v2.667H11.7Zm-5.2,0H9.1v2.667H6.5Z" fill="#526775"/>
  </g>
</svg>
