<svg xmlns="http://www.w3.org/2000/svg" width="10" height="10" viewBox="0 0 10 10">
  <path id="night_ic" d="M3.545.959a4.154,4.154,0,0,0-.318,2.466A4.09,4.09,0,0,0,4.364,5.616,4.059,4.059,0,0,0,6.545,6.758,4.147,4.147,0,0,0,9,6.438a4.555,4.555,0,0,1-9-1A4.6,4.6,0,0,1,3.545.959M7.364,1l.364.091v.457l-.364.091a1.19,1.19,0,0,0-.409.228.742.742,0,0,0-.227.411l-.091.365H6.182l-.091-.365a1.2,1.2,0,0,0-.227-.411.737.737,0,0,0-.409-.228l-.364-.091V1.1L5.455,1A1.19,1.19,0,0,0,5.864.776.742.742,0,0,0,6.091.365L6.182,0h.455l.091.365a1.2,1.2,0,0,0,.227.411A.878.878,0,0,0,7.364,1M9.636,3.288,10,3.379v.457l-.364.091a1.19,1.19,0,0,0-.409.228A.742.742,0,0,0,9,4.566l-.091.365H8.455l-.091-.365a1.2,1.2,0,0,0-.227-.411.737.737,0,0,0-.409-.228l-.364-.091V3.379l.364-.091a1.19,1.19,0,0,0,.409-.228.742.742,0,0,0,.227-.411l.091-.365h.455L9,2.648a1.2,1.2,0,0,0,.227.411.878.878,0,0,0,.409.228" fill="#fff"/>
</svg>
