<svg xmlns="http://www.w3.org/2000/svg" width="17" height="18" viewBox="0 0 17 18">
  <path id="Attendance_ic" d="M7.766,10.963v6.611H0a6.145,6.145,0,0,1,.6-2.762A6.4,6.4,0,0,1,2.33,12.553a8.054,8.054,0,0,1,2.5-1.339,5.871,5.871,0,0,1,2.934-.251M6.9,10.042A5.116,5.116,0,0,1,1.726,5.021,5.116,5.116,0,0,1,6.9,0a5.116,5.116,0,0,1,5.178,5.021A5.116,5.116,0,0,1,6.9,10.042m8.888,2.845L17,14.059l-4.029,3.829a.413.413,0,0,1-.569,0l-2.474-2.4a.355.355,0,0,1,0-.511l.687-.666a.381.381,0,0,1,.521-.006l1.635,1.514" fill="#fff"/>
</svg>
