<svg xmlns="http://www.w3.org/2000/svg" width="18" height="18" viewBox="0 0 18 18">
  <path id="About_Us_ic" data-name="About Us_ic" d="M8.4,0H9.6c.172.023.345.047.518.067a9.132,9.132,0,0,1,5.2,2.3,7.868,7.868,0,0,1,2.532,4.37c.07.343.1.694.156,1.042v.985l-.045.359a7.76,7.76,0,0,1-2.376,4.794,9.3,9.3,0,0,1-7.611,2.562c-.314-.028-.624-.113-.939-.132s-.586.21-.874.328a16.27,16.27,0,0,1-4.479,1.3A3.109,3.109,0,0,1,.22,17.827c-.17-.065-.2-.144-.1-.3a2.108,2.108,0,0,1,.344-.386c.372-.334.761-.648,1.129-.986a4.02,4.02,0,0,0,1.055-1.527c.145-.378.14-.372-.137-.637A7.686,7.686,0,0,1,.011,8.66,7.6,7.6,0,0,1,1.818,3.271,8.974,8.974,0,0,1,7.534.111C7.822.065,8.112.037,8.4,0m2.112,11.956a1.758,1.758,0,0,1-.318.112,3.025,3.025,0,0,1-.689.044c-.315-.036-.434-.2-.43-.53a2.493,2.493,0,0,1,.078-.556c.135-.546.281-1.09.428-1.633a5.5,5.5,0,0,0,.252-1.629,1.25,1.25,0,0,0-.643-1.219,2.084,2.084,0,0,0-1.056-.213A5.121,5.121,0,0,0,6.447,6.8c-.03.013-.073.034-.081.06-.045.166-.082.333-.126.521a2.012,2.012,0,0,1,.266-.089A5.8,5.8,0,0,1,7.159,7.2a.393.393,0,0,1,.385.252,1.252,1.252,0,0,1,.068.953c-.19.764-.417,1.518-.585,2.287a4.649,4.649,0,0,0-.086,1.155,1.086,1.086,0,0,0,.563.912A1.933,1.933,0,0,0,8.586,13a5.415,5.415,0,0,0,1.666-.476.188.188,0,0,0,.087-.1c.059-.144.109-.292.174-.471m.073-8a1.242,1.242,0,0,0-2.484,0,1.191,1.191,0,0,0,1.25,1.215,1.189,1.189,0,0,0,1.234-1.211" transform="translate(0)" fill="#fff"/>
</svg>
