<svg id="Classwork_Homework_ic" xmlns="http://www.w3.org/2000/svg" xmlns:xlink="http://www.w3.org/1999/xlink" width="20" height="18" viewBox="0 0 20 18">
  <defs>
    <clipPath id="clip-path">
      <rect id="Rectangle_2274" data-name="Rectangle 2274" width="20" height="18" fill="#fff"/>
    </clipPath>
  </defs>
  <g id="Group_1525" data-name="Group 1525" clip-path="url(#clip-path)">
    <path id="Path_12015" data-name="Path 12015" d="M2.851,17.23a.97.97,0,0,1-.825-.975c.014-2.429.007-4.857.007-7.286V8.763c-.169.137-.326.262-.48.388-.338.278-.674.558-1.014.835a.316.316,0,0,1-.357.053A.3.3,0,0,1,0,9.737c0-.488-.008-.976.007-1.463a.475.475,0,0,1,.149-.312C.6,7.584,1.05,7.221,1.5,6.855c.481-.391.966-.777,1.446-1.17.426-.349.846-.7,1.272-1.054s.839-.677,1.256-1.019c.364-.3.72-.6,1.083-.9.417-.342.838-.679,1.256-1.02.292-.239.58-.483.872-.722.366-.3.732-.6,1.1-.892a.316.316,0,0,1,.423.006c.289.233.571.475.858.711.272.224.545.446.818.667s.57.46.854.69c.364.295.728.588,1.09.885.284.232.564.468.848.7.363.3.728.588,1.089.884.285.232.565.469.849.7.362.3.728.588,1.089.884.288.236.572.477.86.712.354.29.711.576,1.067.864a1.284,1.284,0,0,1,.231.2.526.526,0,0,1,.126.277c.012.5.005,1,.006,1.494a.272.272,0,0,1-.195.289.318.318,0,0,1-.342-.052c-.461-.384-.926-.764-1.391-1.145a1.194,1.194,0,0,0-.1-.062v.19c0,2.444,0,4.888,0,7.332a.949.949,0,0,1-.839.922,5.4,5.4,0,0,0,.052-1.246c0-2.276.008-4.553,0-6.829a1.136,1.136,0,0,0-.869-1.167,1.458,1.458,0,0,0-.4-.048c-1.457,0-2.916-.009-4.373,0a2.529,2.529,0,0,0-1.39.364c-.161.1-.274.023-.393-.044a2.087,2.087,0,0,0-1-.293C7.18,7.955,5.6,7.937,4.017,7.94A1.122,1.122,0,0,0,2.846,8.951a3.281,3.281,0,0,0-.031.36q0,3.681,0,7.362c0,.182.023.365.035.557M9.98.721c-.17.143-.343.292-.521.438-.37.3-.743.6-1.113.907-.288.236-.573.476-.861.711-.359.293-.719.583-1.077.876-.288.235-.572.475-.86.711-.37.3-.743.605-1.113.908-.284.233-.564.469-.848.7q-.561.461-1.124.917c-.3.24-.594.478-.89.719s-.567.466-.847.7a.242.242,0,0,0-.1.143c-.011.2-.005.411-.005.643l.647-.529c.279-.23.556-.461.837-.69.362-.3.727-.59,1.089-.886.291-.239.58-.481.872-.721.362-.3.727-.591,1.088-.888.284-.232.564-.469.848-.7.363-.3.729-.589,1.091-.886.292-.239.579-.484.87-.724q.555-.454,1.113-.9c.234-.189.464-.381.7-.563a.317.317,0,0,1,.423,0c.216.169.424.349.636.524.287.237.573.475.862.71.351.286.7.569,1.054.855.284.232.564.468.848.7.355.29.713.575,1.067.865.288.235.571.477.86.713.358.292.72.58,1.079.873.288.236.571.477.859.713q.549.45,1.1.894l.8.645c0-.232,0-.439,0-.645a.184.184,0,0,0-.068-.11c-.221-.188-.444-.374-.669-.557-.35-.286-.705-.568-1.056-.855s-.7-.581-1.048-.868c-.477-.388-.959-.771-1.436-1.16-.356-.29-.7-.589-1.06-.879-.478-.389-.96-.772-1.438-1.161-.418-.342-.83-.691-1.248-1.033-.453-.371-.91-.737-1.368-1.108m.031,4.014A1.053,1.053,0,0,0,8.92,5.8,1.007,1.007,0,0,0,10,6.855a1,1,0,0,0,1.08-1.048,1.046,1.046,0,0,0-1.069-1.072" transform="translate(0)" fill="#fff"/>
    <path id="Path_12016" data-name="Path 12016" d="M9.886,9.187c.206-.153.384-.3.574-.421a1.343,1.343,0,0,1,.741-.218c1.577-.005,3.154,0,4.732,0a.528.528,0,0,1,.545.534V16.9a.311.311,0,0,1-.352.336q-2.209,0-4.419,0a.416.416,0,0,0-.315.129,4.417,4.417,0,0,1-.545.494.9.9,0,0,1-.44.136c-.3.02-.6,0-.906.009a.914.914,0,0,1-.7-.285c-.145-.138-.288-.278-.443-.4a.375.375,0,0,0-.221-.073q-2.211-.006-4.42,0a.313.313,0,0,1-.36-.343c0-2.6,0-5.191-.005-7.787a.6.6,0,0,1,.587-.564c1.52.012,3.04.005,4.561.006a1.722,1.722,0,0,1,1.28.52c.04.041.076.084.108.121M3.993,9.155v7.469h.2c1.354,0,2.708,0,4.061.006a.823.823,0,0,1,.441.135,4.339,4.339,0,0,1,.545.494.343.343,0,0,0,.368.112v-.1q0-3.628,0-7.255a.466.466,0,0,0-.027-.145,1.128,1.128,0,0,0-1.122-.71c-1.438-.009-2.875,0-4.312,0Zm11.853,0h-.18q-2.125,0-4.249,0a1.3,1.3,0,0,0-.691.171.889.889,0,0,0-.5.8c.007,2.357,0,4.715,0,7.072v.173a.342.342,0,0,0,.363-.109c.134-.143.276-.278.419-.411a.8.8,0,0,1,.567-.23c1.359,0,2.718,0,4.077,0h.191Z" transform="translate(0.083)" fill="#fff"/>
    <path id="Path_12017" data-name="Path 12017" d="M6.749,10.832c-.416,0-.832,0-1.248,0a.283.283,0,0,1-.316-.307.29.29,0,0,1,.32-.3h2.48a.306.306,0,1,1,0,.61H6.749" transform="translate(0.129)" fill="#fff"/>
    <path id="Path_12018" data-name="Path 12018" d="M6.751,13.271c-.416,0-.833,0-1.249,0a.294.294,0,0,1-.317-.276.31.31,0,0,1,.314-.333q1.248,0,2.5,0a.3.3,0,1,1-.011.609H6.751" transform="translate(0.129)" fill="#fff"/>
    <path id="Path_12019" data-name="Path 12019" d="M6.747,12.051H5.53c-.218,0-.34-.1-.345-.3a.32.32,0,0,1,.338-.312c.3,0,.6,0,.9,0,.5,0,1.008,0,1.513,0,.313,0,.468.236.305.475A.36.36,0,0,1,8,12.045c-.416.013-.832.006-1.248.006" transform="translate(0.129)" fill="#fff"/>
    <path id="Path_12020" data-name="Path 12020" d="M6.75,14.49c-.406,0-.811,0-1.216,0-.221,0-.353-.12-.348-.312a.339.339,0,0,1,.358-.3H7.96a.331.331,0,0,1,.349.305.3.3,0,0,1-.343.3c-.406,0-.811,0-1.217,0" transform="translate(0.129)" fill="#fff"/>
    <path id="Path_12021" data-name="Path 12021" d="M6.748,15.71h-1.2a.33.33,0,0,1-.362-.291c0-.2.133-.316.361-.318.354,0,.707,0,1.061,0,.447,0,.895,0,1.342,0,.29,0,.462.247.308.454a.43.43,0,0,1-.292.148c-.4.017-.811.007-1.216.007" transform="translate(0.129)" fill="#fff"/>
    <path id="Path_12022" data-name="Path 12022" d="M12.86,13.88h1.156c.222,0,.386.125.39.3a.368.368,0,0,1-.389.342c-.532,0-1.063,0-1.594,0-.239,0-.48.013-.717-.005a.574.574,0,0,1-.335-.124.356.356,0,0,1-.061-.3.292.292,0,0,1,.3-.213c.416,0,.833,0,1.249,0" transform="translate(0.281)" fill="#fff"/>
    <path id="Path_12023" data-name="Path 12023" d="M12.845,13.271H11.628c-.223,0-.347-.11-.347-.307s.121-.3.353-.3H13.49c.2,0,.4,0,.593,0a.288.288,0,0,1,.324.315.293.293,0,0,1-.33.294H12.845" transform="translate(0.28)" fill="#fff"/>
    <path id="Path_12024" data-name="Path 12024" d="M12.846,10.222h1.232a.3.3,0,0,1,.329.312.293.293,0,0,1-.325.3H11.6a.305.305,0,1,1,0-.61c.416,0,.831,0,1.247,0" transform="translate(0.28)" fill="#fff"/>
    <path id="Path_12025" data-name="Path 12025" d="M12.838,12.051h-1.2c-.228,0-.353-.108-.354-.3s.135-.3.36-.3c.473,0,.947,0,1.42,0,.333,0,.666,0,1,0,.3.005.44.241.278.479a.334.334,0,0,1-.238.123c-.42.013-.842.006-1.264.006" transform="translate(0.28)" fill="#fff"/>
    <path id="Path_12026" data-name="Path 12026" d="M12.843,15.71c-.406,0-.811,0-1.217,0a.334.334,0,0,1-.305-.165.245.245,0,0,1,.029-.319.449.449,0,0,1,.277-.121c.812-.01,1.622-.007,2.433-.005a.31.31,0,0,1,.347.316.339.339,0,0,1-.363.293h-1.2" transform="translate(0.28)" fill="#fff"/>
  </g>
</svg>
