<svg xmlns="http://www.w3.org/2000/svg" width="18" height="18" viewBox="0 0 18 18">
  <path id="setting_ic" d="M.134,10.47a8.153,8.153,0,0,1,0-2.941A2.348,2.348,0,0,0,2.361,6.282a2.276,2.276,0,0,0-.624-2.5,7.478,7.478,0,0,1,2.05-2.05,2.242,2.242,0,0,0,2.5.624A2.209,2.209,0,0,0,7.53.134a8.153,8.153,0,0,1,2.941,0,2.348,2.348,0,0,0,1.248,2.228,2.276,2.276,0,0,0,2.5-.624,7.478,7.478,0,0,1,2.05,2.05,2.242,2.242,0,0,0-.624,2.5A2.209,2.209,0,0,0,17.866,7.53a8.153,8.153,0,0,1,0,2.941,2.348,2.348,0,0,0-2.228,1.248,2.276,2.276,0,0,0,.624,2.5,7.478,7.478,0,0,1-2.05,2.05,2.242,2.242,0,0,0-2.5-.624,2.209,2.209,0,0,0-1.248,2.228,8.153,8.153,0,0,1-2.941,0,2.348,2.348,0,0,0-1.248-2.228,2.276,2.276,0,0,0-2.5.624,7.478,7.478,0,0,1-2.05-2.05,2.242,2.242,0,0,0,.624-2.5A2.348,2.348,0,0,0,.134,10.47m8.822,1.248a2.427,2.427,0,0,0,1.871-.8,2.565,2.565,0,0,0,.8-1.871,2.427,2.427,0,0,0-.8-1.871,2.565,2.565,0,0,0-1.871-.8,2.427,2.427,0,0,0-1.871.8,2.565,2.565,0,0,0-.8,1.871,2.427,2.427,0,0,0,.8,1.871,2.427,2.427,0,0,0,1.871.8" fill="#fff"/>
</svg>
