<svg id="Announcements_ic" xmlns="http://www.w3.org/2000/svg" xmlns:xlink="http://www.w3.org/1999/xlink" width="20" height="20" viewBox="0 0 20 20">
  <defs>
    <clipPath id="clip-path">
      <rect id="Rectangle_2269" data-name="Rectangle 2269" width="20" height="20" fill="#fff"/>
    </clipPath>
  </defs>
  <g id="Group_1521" data-name="Group 1521" clip-path="url(#clip-path)">
    <path id="Path_11981" data-name="Path 11981" d="M6.907,1.363c-.229.557-.467,1.112-.658,1.683C5.629,4.892,5.086,6.775,3.623,8.183Q5.09,10.74,6.5,13.2c.521-.072.99-.159,1.462-.2a16.394,16.394,0,0,1,4.37.531c.73.136,1.469.217,2.268.332A30.421,30.421,0,0,1,7.144.961a2.856,2.856,0,0,0-.237.4" transform="translate(0.403 0.107)" fill="#fff"/>
    <path id="Path_11982" data-name="Path 11982" d="M9.449,1.312a5.294,5.294,0,0,0-1-.9A.964.964,0,0,0,7.683.237C7.537.3,7.53.7,7.463.958a.1.1,0,0,0,0,.041A16.306,16.306,0,0,0,9.113,5.6c1.37-.34,2.314-.013,2.846.956.519.952.3,1.951-.722,2.947.88,1.073,1.74,2.151,2.636,3.2a3.426,3.426,0,0,0,.864.68c.451.269.779.089.74-.434a6.485,6.485,0,0,0-.3-1.647A30.7,30.7,0,0,0,9.449,1.312" transform="translate(0.829 0.023)" fill="#fff"/>
    <path id="Path_11983" data-name="Path 11983" d="M6.324,12.708c-.94-1.638-1.856-3.238-2.791-4.87-.773.449-1.5.849-2.21,1.288A2.8,2.8,0,0,0,.318,12.8,2.723,2.723,0,0,0,3.84,14.1c.849-.391,1.64-.911,2.484-1.389" transform="translate(0 0.871)" fill="#fff"/>
    <path id="Path_11984" data-name="Path 11984" d="M5.826,12.952,3.413,14.3c.024.1.047.211.073.317A7.244,7.244,0,0,0,5.612,18.2a1.327,1.327,0,0,0,1.821,0,1.289,1.289,0,0,0,.2-1.75,8.279,8.279,0,0,1-1.8-3.5" transform="translate(0.379 1.439)" fill="#fff"/>
    <path id="Path_11985" data-name="Path 11985" d="M14.1,4.746c.168.021.377.117.5.051.814-.443,1.612-.918,2.409-1.393a1.09,1.09,0,0,0,.232-.246.332.332,0,0,0-.532-.314c-.818.466-1.636.933-2.434,1.431-.111.07-.118.31-.173.471" transform="translate(1.567 0.309)" fill="#fff"/>
    <path id="Path_11986" data-name="Path 11986" d="M17.877,6.5c-.884.039-1.769.064-2.651.131-.156.012-.407.182-.423.306-.038.278.2.343.446.329.436-.026.87-.049,1.306-.073v.017c.448-.024.9-.052,1.346-.073.229-.011.466-.027.456-.336s-.251-.31-.479-.3" transform="translate(1.644 0.722)" fill="#fff"/>
    <path id="Path_11987" data-name="Path 11987" d="M12.433,3.062c.239.148.376-.019.492-.2Q13.65,1.714,14.373.57a2.4,2.4,0,0,0,.134-.292c.041-.051.081-.1.122-.156-.117-.043-.237-.133-.347-.121a.6.6,0,0,0-.4.18c-.516.774-1,1.567-1.5,2.351-.126.2-.177.388.053.53" transform="translate(1.364 0)" fill="#fff"/>
  </g>
</svg>
