<svg xmlns="http://www.w3.org/2000/svg" width="9" height="12" viewBox="0 0 9 12">
  <path id="pin_ic" d="M3.939,9.086a4.827,4.827,0,0,1-2.921-1.6,4.738,4.738,0,0,1-1.011-3.2,4.492,4.492,0,0,1,1.4-3.029A4.435,4.435,0,0,1,4.5,0,4.538,4.538,0,0,1,7.59,1.257a4.492,4.492,0,0,1,1.4,3.029,4.738,4.738,0,0,1-1.011,3.2,4.2,4.2,0,0,1-2.921,1.6v1.2c2.247.057,3.932.4,3.932.857S6.972,12,4.5,12,.006,11.6.006,11.143s1.685-.8,3.932-.857ZM4.5,5.714a1.1,1.1,0,0,0,.786-.343,1.118,1.118,0,0,0,0-1.6,1.073,1.073,0,0,0-1.573,0,1.118,1.118,0,0,0,0,1.6,1.1,1.1,0,0,0,.786.343" transform="translate(0)" fill="rgba(8,38,58,0.7)"/>
</svg>
