<svg xmlns="http://www.w3.org/2000/svg" xmlns:xlink="http://www.w3.org/1999/xlink" width="16" height="16.004" viewBox="0 0 16 16.004">
  <defs>
    <clipPath id="clip-path">
      <rect id="Rectangle_2305" data-name="Rectangle 2305" width="16" height="16.004" transform="translate(0 0)" fill="#7f1417"/>
    </clipPath>
  </defs>
  <g id="link_ic" transform="translate(0 0)" clip-path="url(#clip-path)">
    <path id="Path_12067" data-name="Path 12067" d="M8.5,5.53a1.411,1.411,0,0,0-.159,2.137,2.342,2.342,0,0,1-.059,3.373q-1.17,1.173-2.342,2.342c-.066.066-.135.131-.206.191a2.342,2.342,0,0,1-3.192-3.42c.59-.61,1.2-1.2,1.8-1.8A.191.191,0,0,0,4.4,8.132,4.936,4.936,0,0,1,4.213,6.2c.01-.094.017-.189.026-.283L4.206,5.9c-.186.163-.382.317-.558.491-.8.792-1.591,1.59-2.387,2.385A4.11,4.11,0,0,0,.176,10.588c-.078.278-.118.567-.176.851v.688c.01.044.019.089.03.133a8.281,8.281,0,0,0,.242,1,4.209,4.209,0,0,0,6.857,1.577C8,14,8.842,13.13,9.695,12.274a3.952,3.952,0,0,0,1.011-1.737A4.124,4.124,0,0,0,9.685,6.365,3.676,3.676,0,0,0,8.5,5.53" fill="#7f1417"/>
    <path id="Path_12068" data-name="Path 12068" d="M13.1.215A9.832,9.832,0,0,0,12.126,0h-.687a.8.8,0,0,1-.105.026A4.162,4.162,0,0,0,8.782,1.251c-.8.8-1.6,1.6-2.4,2.4A4.319,4.319,0,0,0,5.3,5.45,4.192,4.192,0,0,0,6.591,9.881a3.77,3.77,0,0,0,.92.589,1.454,1.454,0,0,0,.111-2.206,2.3,2.3,0,0,1,.024-3.219c.828-.851,1.662-1.7,2.521-2.516a2.219,2.219,0,0,1,2.5-.476,2.336,2.336,0,0,1,.765,3.828c-.564.577-1.137,1.146-1.713,1.711a.314.314,0,0,0-.095.338,11.029,11.029,0,0,1,.183,1.184c.029.317.006.64.006.971.165-.143.354-.288.521-.454q1.216-1.2,2.421-2.419a4.152,4.152,0,0,0,1.22-2.57A4.192,4.192,0,0,0,13.1.215" fill="#7f1417"/>
    <path id="Path_12069" data-name="Path 12069" d="M3.034,3.683a.988.988,0,0,0,.256.139.476.476,0,0,0,.5-.277.445.445,0,0,0-.092-.518q-.324-.337-.66-.661a.467.467,0,1,0-.663.659c.216.225.434.448.664.658" fill="#7f1417"/>
    <path id="Path_12070" data-name="Path 12070" d="M12.979,12.316a1.123,1.123,0,0,0-.267-.146.488.488,0,0,0-.488.275.444.444,0,0,0,.087.519c.215.225.436.445.659.662a.468.468,0,1,0,.66-.663c-.213-.22-.425-.441-.651-.647" fill="#7f1417"/>
    <path id="Path_12071" data-name="Path 12071" d="M5.874,1.827a.449.449,0,0,0,.51.292.508.508,0,0,0,.39-.542c-.089-.306-.181-.69-.316-1.059A.427.427,0,0,0,5.913.307.453.453,0,0,0,5.6.821c.077.338.169.675.273,1.006" fill="#7f1417"/>
    <path id="Path_12072" data-name="Path 12072" d="M15.379,9.492c-.309-.091-.621-.168-.932-.251a.784.784,0,0,0-.078-.014.486.486,0,0,0-.488.4.474.474,0,0,0,.343.526c.3.086.6.165.9.241a.466.466,0,0,0,.575-.324.461.461,0,0,0-.323-.574" fill="#7f1417"/>
    <path id="Path_12073" data-name="Path 12073" d="M.569,6.479a8.76,8.76,0,0,0,1.052.278A.444.444,0,0,0,2.128,6.3a.451.451,0,0,0-.314-.439C1.5,5.763,1.176,5.674.852,5.6a.455.455,0,0,0-.544.328.443.443,0,0,0,.261.551" fill="#7f1417"/>
    <path id="Path_12074" data-name="Path 12074" d="M9.564,13.893a.451.451,0,0,0-.317.523c.074.334.163.665.263.993a.461.461,0,0,0,.507.3.5.5,0,0,0,.393-.559c-.084-.292-.174-.67-.3-1.035a.433.433,0,0,0-.542-.223" fill="#7f1417"/>
  </g>
</svg>
