<svg id="school_ic" xmlns="http://www.w3.org/2000/svg" width="26" height="24" viewBox="0 0 26 24">
  <path id="school_ic-2" data-name="school_ic" d="M24.577,24H1.294a1.158,1.158,0,0,1-.905-.4A1.228,1.228,0,0,1,0,22.667v-10a.821.821,0,0,1,.129-.533c.129-.133.129-.267.388-.4L5.3,7.467V1.333A1.228,1.228,0,0,1,5.692.4,1.158,1.158,0,0,1,6.6,0H24.706a1.158,1.158,0,0,1,.905.4A1.228,1.228,0,0,1,26,1.333V22.667a1.228,1.228,0,0,1-.388.933,1.69,1.69,0,0,1-1.035.4M9.055,21.333h3.881V13.2L7.761,8.533,2.587,13.2v8.133H6.468V16H9.055Zm6.468,0h7.761V2.667H7.761v2.8a2.344,2.344,0,0,1,.905.267L15.134,11.6l.388.4a.821.821,0,0,1,.129.533Zm2.587-10.667H20.7v2.667H18.109Zm0,5.333H20.7v2.667H18.109Zm0-10.667H20.7V8H18.109Zm-5.174,0h2.587V8H12.935Z" fill="#526775"/>
</svg>
