<svg xmlns="http://www.w3.org/2000/svg" width="26" height="24" viewBox="0 0 26 24">
  <path id="school_ic" d="M9.1,21.333H13V13.2L7.8,8.533,2.6,13.2v8.133H6.5V16H9.1ZM24.7,24H1.3a1.167,1.167,0,0,1-.91-.4A1.225,1.225,0,0,1,0,22.667v-10a.818.818,0,0,1,.13-.533c.13-.133.13-.267.26-.4L5.2,7.467V1.333A1.225,1.225,0,0,1,5.59.4,1.167,1.167,0,0,1,6.5,0H24.7a1.167,1.167,0,0,1,.91.4,1.225,1.225,0,0,1,.39.933V22.667a1.225,1.225,0,0,1-.39.933,1.167,1.167,0,0,1-.91.4M18.2,13.333h2.6V10.667H18.2Zm0,5.333h2.6V16H18.2ZM18.2,8h2.6V5.333H18.2ZM13,8h2.6V5.333H13Z" transform="translate(0 0)" fill="#7f1417"/>
</svg>
