<svg xmlns="http://www.w3.org/2000/svg" width="10" height="10" viewBox="0 0 10 10">
  <path id="sun_ic" d="M5,7.727a2.544,2.544,0,0,1-1.909-.818A2.722,2.722,0,0,1,2.273,5a2.544,2.544,0,0,1,.818-1.909A2.722,2.722,0,0,1,5,2.273a2.544,2.544,0,0,1,1.909.818A2.722,2.722,0,0,1,7.727,5a2.544,2.544,0,0,1-.818,1.909A2.544,2.544,0,0,1,5,7.727M4.545,0h.909V1.364H4.545Zm0,8.636h.909V10H4.545ZM1.136,1.773l.636-.636.955.955-.636.636ZM7.227,7.909l.636-.636.955.955-.636.636Zm1-6.773.636.636-.955.955-.636-.636ZM2.091,7.227l.636.636-.955.955-.636-.636ZM10,5.455H8.636V4.545H10Zm-8.636,0H0V4.545H1.364Z" fill="#fff"/>
</svg>
