<svg xmlns="http://www.w3.org/2000/svg" xmlns:xlink="http://www.w3.org/1999/xlink" width="18" height="18" viewBox="0 0 18 18">
  <defs>
    <linearGradient id="linear-gradient" x1="0.5" x2="0.5" y2="1" gradientUnits="objectBoundingBox">
      <stop offset="0" stop-color="#7f1417"/>
      <stop offset="1" stop-color="#bc212c"/>
    </linearGradient>
  </defs>
  <path id="touchID_ic" d="M-12.788-14.828a.611.611,0,0,0,.79-.389,7.791,7.791,0,0,1,7.4-5.357,6.972,6.972,0,0,1,3.371.763c.375.183.727.183.876-.159a.554.554,0,0,0-.289-.747A7.07,7.07,0,0,0-4.6-21.727a8.777,8.777,0,0,0-8.493,5.969A.679.679,0,0,0-12.788-14.828Zm1.2,7.312a.57.57,0,0,0,.845.1A2.932,2.932,0,0,0-9.84-9.653c0-1.145-.485-1.733-.485-3.084a5.78,5.78,0,0,1,5.7-5.794c3.715,0,6.147,3.108,6.147,7.749A10.437,10.437,0,0,1,.945-6.975a.6.6,0,0,0,.25.779.578.578,0,0,0,.79-.318,12.293,12.293,0,0,0,.673-4.276c0-5.309-2.894-8.886-7.281-8.886a6.921,6.921,0,0,0-6.827,6.939c0,1.343.5,2.249.508,3.068a1.876,1.876,0,0,1-.54,1.351A.618.618,0,0,0-11.592-7.515ZM3.987-11.728a.543.543,0,0,0,.524-.628A10.235,10.235,0,0,0,1.25-19.485a.557.557,0,0,0-.813.04.575.575,0,0,0,.086.827,9.532,9.532,0,0,1,2.9,6.3A.584.584,0,0,0,3.987-11.728ZM-7.822-10.679a5.432,5.432,0,0,1-.469-2.035A3.705,3.705,0,0,1-4.6-16.473a3.062,3.062,0,0,1,1.666.382.507.507,0,0,0,.7-.191.6.6,0,0,0-.25-.827A4.192,4.192,0,0,0-4.6-17.625a4.866,4.866,0,0,0-4.833,4.912,7.1,7.1,0,0,0,.5,2.472.591.591,0,0,0,.806.35A.6.6,0,0,0-7.822-10.679Zm6.264-4.22a8.375,8.375,0,0,1,1.079,4.53A8.567,8.567,0,0,1-1.886-5.3a.612.612,0,0,0,.023.8.569.569,0,0,0,.845-.064A10.3,10.3,0,0,0,.64-10.4,9.248,9.248,0,0,0-.58-15.511a.6.6,0,0,0-.813-.27A.6.6,0,0,0-1.558-14.9ZM-7.846-4.885a6.072,6.072,0,0,0,2.088-4.8c-.016-1.47-.516-2.361-.516-3.124a1.544,1.544,0,0,1,1.666-1.613c1.416,0,2.01,1.574,2.072,3.982A7.457,7.457,0,0,1-4.522-4.75a.6.6,0,0,0-.133.779.554.554,0,0,0,.845.087c1.337-1.232,2.346-3.9,2.338-6.637-.008-3.076-.962-5.047-3.136-5.047A2.628,2.628,0,0,0-7.392-12.9c0,.954.485,2.1.5,3.219a4.947,4.947,0,0,1-1.65,3.9.593.593,0,0,0-.141.8A.548.548,0,0,0-7.846-4.885ZM-12.4-9.852a.6.6,0,0,0,.36-.731,9.569,9.569,0,0,1-.289-2.686.569.569,0,0,0-.485-.6.556.556,0,0,0-.649.548,8.985,8.985,0,0,0,.336,3.06A.564.564,0,0,0-12.4-9.852Zm8.689,1.017A8.214,8.214,0,0,0-3.99-12.6a.561.561,0,0,0-.719-.429.566.566,0,0,0-.368.723,7.22,7.22,0,0,1,.25,3.3.535.535,0,0,0,.43.668A.575.575,0,0,0-3.716-8.835ZM-9.55-5.966A4.2,4.2,0,0,0-7.893-8.159a.583.583,0,0,0-.352-.731.55.55,0,0,0-.7.389,2.892,2.892,0,0,1-1.126,1.526.651.651,0,0,0-.282.787A.544.544,0,0,0-9.55-5.966Zm3.613,1.741A5.443,5.443,0,0,0-4.272-6.657a.556.556,0,0,0-.3-.755.562.562,0,0,0-.743.366A4.493,4.493,0,0,1-6.626-5.155a.62.62,0,0,0-.149.811A.585.585,0,0,0-5.937-4.225Z" transform="translate(13.488 21.727)" fill="url(#linear-gradient)"/>
</svg>
