<svg id="Teaching_ic" xmlns="http://www.w3.org/2000/svg" width="26" height="24" viewBox="0 0 26 24">
  <g id="Group_3155" transform="translate(0)">
    <path id="Path_12337" d="M13.677,2.237l5.2,2.436L21.3,5.8l-1.913.906q-2.815,1.334-5.625,2.678Q10.246,7.726,6.733,6.067L6.175,5.8l2.039-.968q2.731-1.3,5.463-2.6M13.642,0a1.277,1.277,0,0,0-.558.13Q7.369,2.853,1.65,5.566c-.093.046-.225.166-.217.234a.443.443,0,0,0,.216.284c.385.2.789.356,1.176.552A.367.367,0,0,1,3,6.9c.02,1.848.026,3.7.042,5.546a.248.248,0,0,1-.19.288,1.646,1.646,0,0,0-.236,3.006.269.269,0,0,1,.176.3,19.54,19.54,0,0,1-.25,1.968A5.38,5.38,0,0,1,.225,21.582c-.308.193-.3.516.011.748q1.027.778,2.065,1.541A.527.527,0,0,0,2.61,24a.547.547,0,0,0,.365-.2A3.728,3.728,0,0,0,4.236,20.9c-.033-.857-.186-1.71-.3-2.562-.1-.8-.225-1.59-.337-2.378.109-.044.159-.068.211-.086A1.627,1.627,0,0,0,5,14.436,1.6,1.6,0,0,0,4.058,12.8a.287.287,0,0,1-.176-.308c-.006-.7-.023-1.4-.026-2.1,0-1.08,0-2.16,0-3.287.131.059.234.1.334.15Q8.6,9.333,13,11.417a1.756,1.756,0,0,0,.766.188,1.633,1.633,0,0,0,.721-.175c2.572-1.236,5.154-2.453,7.732-3.677,1.191-.565,2.384-1.128,3.573-1.7.088-.042.217-.157.206-.217a.7.7,0,0,0-.2-.3.55.55,0,0,0-.176-.085L19.787,2.714,14.412.2a1.832,1.832,0,0,0-.77-.2" transform="translate(0)" fill="#526775"/>
    <path id="Path_12338" d="M18.312,10.951c0,1.374,0,2.8.014,3.551a.42.42,0,0,1,0,.076.537.537,0,0,1-.12.13,4.349,4.349,0,0,1-1.625.841,13.064,13.064,0,0,1-3.781.584,11.933,11.933,0,0,1-4.212-.78A3.181,3.181,0,0,1,7.4,14.633c-.043-.043-.056-.065-.048-.073.013-.745.013-2.144.013-3.517l1.078.512q1.163.551,2.323,1.1a4.685,4.685,0,0,0,2,.463,4.533,4.533,0,0,0,1.986-.468q1.776-.859,3.557-1.7M20.45,7.557c-.155.071-.266.12-.377.173C17.988,8.719,15.9,9.7,13.824,10.7a2.4,2.4,0,0,1-1.055.254,2.556,2.556,0,0,1-1.091-.26c-1.218-.572-2.433-1.153-3.65-1.729L5.218,7.642v.332c0,1.384.014,5.168-.006,6.552a2.164,2.164,0,0,0,.667,1.627,5.323,5.323,0,0,0,1.952,1.223,14.013,14.013,0,0,0,4.963.916,15.136,15.136,0,0,0,4.4-.676A6.457,6.457,0,0,0,19.6,16.343a2.313,2.313,0,0,0,.871-1.885c-.026-1.392-.007-5.186-.008-6.58,0-.1-.008-.2-.013-.322" transform="translate(1.003 1.511)" fill="#526775"/>
  </g>
</svg>
