<svg id="mail_ic" xmlns="http://www.w3.org/2000/svg" xmlns:xlink="http://www.w3.org/1999/xlink" width="18" height="16" viewBox="0 0 18 16">
  <defs>
    <clipPath id="clip-path">
      <rect id="Rectangle_2306" data-name="Rectangle 2306" width="18" height="16" fill="#7f1417"/>
    </clipPath>
  </defs>
  <g id="Group_2734" data-name="Group 2734" clip-path="url(#clip-path)">
    <path id="Path_12075" data-name="Path 12075" d="M13.745,6a4.2,4.2,0,0,0,2.618.32V15.2a.719.719,0,0,1-.245.56.751.751,0,0,1-.573.24H.818a.751.751,0,0,1-.573-.24A.719.719,0,0,1,0,15.2V2.4a.719.719,0,0,1,.245-.56A.751.751,0,0,1,.818,1.6H11.536a2.663,2.663,0,0,0-.082.8,3.725,3.725,0,0,0,.982,2.56L8.264,8.48,3.027,4.16,1.964,5.36l6.3,5.28Zm1.8-1.2a3,3,0,0,1-.9-.16,2.94,2.94,0,0,1-.818-.56,1.653,1.653,0,0,1-.491-.8,4.045,4.045,0,0,1-.164-.88,3.335,3.335,0,0,1,.164-.88,4.219,4.219,0,0,1,.491-.8,2.94,2.94,0,0,1,.818-.56,1.957,1.957,0,0,1,.9-.16,2.252,2.252,0,0,1,1.718.72A2.278,2.278,0,0,1,18,2.4a2.156,2.156,0,0,1-.736,1.68,2.252,2.252,0,0,1-1.718.72" fill="#7f1417"/>
  </g>
</svg>
