<svg xmlns="http://www.w3.org/2000/svg" width="42" height="42" viewBox="0 0 42 42">
  <g id="twitter" transform="translate(-24 -280)">
    <rect id="Rectangle_2350" data-name="Rectangle 2350" width="42" height="42" rx="10" transform="translate(24 280)"/>
    <path id="twitter_ic" d="M9.931,13.014,9,14.072Q6.5,16.933,4,19.8a.522.522,0,0,1-.439.2c-.951-.011-1.9-.005-2.852-.005H.425l7.924-9.056C5.572,7.308,2.8,3.682,0,.021.1.014.167,0,.233,0,2.422,0,4.612.007,6.8,0A.372.372,0,0,1,7.13.189q2.289,3.032,4.582,6.06c.03.04.063.077.11.134L12.85,5.212Q15.047,2.7,17.241.187A.5.5,0,0,1,17.665,0c.951.009,1.9,0,2.852,0H20.8c-2.492,2.847-4.944,5.65-7.409,8.468l8.716,11.522h-.3c-2.081,0-4.162,0-6.243.006a.513.513,0,0,1-.462-.232q-2.517-3.306-5.047-6.6c-.034-.045-.071-.088-.122-.15M3.962,1.924c.051.077.075.119.1.157q5.967,7.8,11.93,15.6a.6.6,0,0,0,.565.287c.423-.026.849-.006,1.274-.008.068,0,.137-.007.239-.013-.068-.1-.114-.164-.164-.231L9.381,6.445q-1.647-2.178-3.3-4.353a.375.375,0,0,0-.225-.161c-.618-.013-1.237-.007-1.9-.007" transform="translate(34 291)" fill="#fff"/>
  </g>
</svg>
