<svg id="Teaching_ic" xmlns="http://www.w3.org/2000/svg" width="26" height="24" viewBox="0 0 26 24">
  <g id="Group_3151" transform="translate(0 0)">
    <g id="Group_3154">
      <path id="Path_12329" d="M3.854,7.1c0,1.126,0,2.206,0,3.287,0,.7.02,1.4.025,2.1a.29.29,0,0,0,.177.309A1.606,1.606,0,0,1,5,14.436a1.629,1.629,0,0,1-1.186,1.437c-.053.017-.1.042-.211.086.113.788.233,1.582.338,2.378.112.853.265,1.706.3,2.563A3.729,3.729,0,0,1,2.975,23.8c-.247.237-.416.257-.674.066Q1.264,23.106.235,22.33c-.306-.232-.317-.554-.01-.748a5.377,5.377,0,0,0,2.312-3.567,19.763,19.763,0,0,0,.251-1.968.272.272,0,0,0-.177-.306,1.646,1.646,0,0,1,.236-3.006.249.249,0,0,0,.19-.288C3.022,10.6,3.015,8.75,2.994,6.9a.365.365,0,0,0-.17-.265c-.386-.2-.79-.356-1.176-.552A.439.439,0,0,1,1.433,5.8c-.009-.069.123-.189.217-.234Q7.365,2.844,13.083.13A1.465,1.465,0,0,1,14.412.2l5.374,2.516,5.834,2.734a.55.55,0,0,1,.176.086.707.707,0,0,1,.2.3c.011.06-.118.175-.206.218-1.189.571-2.381,1.134-3.573,1.7-2.578,1.223-5.16,2.44-7.732,3.677A1.615,1.615,0,0,1,13,11.417Q8.6,9.331,4.187,7.251c-.1-.047-.2-.091-.333-.15" transform="translate(0 0)" fill="#7f1417"/>
      <path id="Path_12330" d="M82.3,119.42c.972.458,1.891.891,2.809,1.325,1.217.576,2.432,1.156,3.651,1.728a2.361,2.361,0,0,0,2.146.006c2.077-1,4.165-1.984,6.25-2.973.11-.052.221-.1.375-.172.006.126.015.224.015.322,0,1.393-.019,4.787.008,6.18a2.314,2.314,0,0,1-.871,1.885,6.473,6.473,0,0,1-2.407,1.273,14.222,14.222,0,0,1-9.363-.241,5.31,5.31,0,0,1-1.952-1.222,2.168,2.168,0,0,1-.668-1.628c.022-1.384.007-4.768.007-6.151Z" transform="translate(-76.079 -110.266)" fill="#7f1417"/>
    </g>
  </g>
</svg>
