<svg xmlns="http://www.w3.org/2000/svg" xmlns:xlink="http://www.w3.org/1999/xlink" width="20" height="20" viewBox="0 0 20 20">
  <defs>
    <linearGradient id="linear-gradient" x1="0.5" x2="0.5" y2="1" gradientUnits="objectBoundingBox">
      <stop offset="0" stop-color="#7f1417"/>
      <stop offset="1" stop-color="#bc212c"/>
    </linearGradient>
  </defs>
  <path id="check_ic" d="M15.9,17.406a1.392,1.392,0,0,0-1.644,1.066,1.38,1.38,0,0,1-2.172.779,1.388,1.388,0,0,0-1.984.258,1.344,1.344,0,0,1-2.217-.2c-.646-.842-.965-.946-2-.649a1.277,1.277,0,0,1-1.794-1.08,1.63,1.63,0,0,0-1.557-1.558c-1.074-.152-1.461-.92-1.09-1.95a1.319,1.319,0,0,0-.571-1.76C-.186,11.565-.271,10.9.563,9.939A1.342,1.342,0,0,0,.725,8.085a1.358,1.358,0,0,1,.738-2.2,1.379,1.379,0,0,0,.993-1.634C2.39,3.076,2.872,2.573,4.036,2.6c1,.02,1.3-.171,1.691-1.08A1.378,1.378,0,0,1,7.9.758,1.37,1.37,0,0,0,9.846.521a1.352,1.352,0,0,1,2.282.234,1.42,1.42,0,0,0,1.907.628A1.29,1.29,0,0,1,15.894,2.5a1.619,1.619,0,0,0,1.54,1.513,1.307,1.307,0,0,1,1.158,1.845,1.411,1.411,0,0,0,.692,1.923,1.3,1.3,0,0,1,.265,2.151c-.707.812-.747,1.171-.234,2.069a1.339,1.339,0,0,1-.719,2.1,1.427,1.427,0,0,0-1.07,1.7c.026,1.169-.445,1.635-1.631,1.613M8.861,13.742,14.586,7.9,12.808,6.142,8.743,10.253,7.106,8.509,5.338,10.35l3.523,3.391" transform="translate(0 0)" fill="url(#linear-gradient)"/>
</svg>
