<svg xmlns="http://www.w3.org/2000/svg" width="42" height="42" viewBox="0 0 42 42">
  <g id="youtube_ic" transform="translate(-24 -280)">
    <rect id="Rectangle_2350" data-name="Rectangle 2350" width="42" height="42" rx="10" transform="translate(24 280)" fill="#f70000"/>
    <path id="youtube_ic-2" data-name="youtube_ic" d="M19.5,2.5A28.53,28.53,0,0,1,20,8a28.53,28.53,0,0,1-.5,5.5,2.594,2.594,0,0,1-1.9,2c-1.7.5-7.6.5-7.6.5s-5.9,0-7.6-.5a2.749,2.749,0,0,1-1.9-2A28.53,28.53,0,0,1,0,8,28.53,28.53,0,0,1,.5,2.5,2.594,2.594,0,0,1,2.4.5C4.1,0,10,0,10,0s5.9,0,7.6.5a2.455,2.455,0,0,1,1.9,2M8,11.5,14,8,8,4.5Z" transform="translate(35 293)" fill="#fff"/>
  </g>
</svg>
